HIERARCHY
ROOT Hips
{
    OFFSET 0.000000 0.000000 0.000000
    CHANNELS 6 Xposition Yposition Zposition Zrotation Yrotation Xrotation
    JOINT Chest
    {
        OFFSET 0.000000 1.634758 -0.000000
        CHANNELS 3 Zrotation Yrotation Xrotation
        JOINT Chest2
        {
            OFFSET 0.000000 2.197341 0.000000
            CHANNELS 3 Zrotation Yrotation Xrotation
            JOINT Neck
            {
                OFFSET 0.000000 0.961544 0.000000
                CHANNELS 3 Zrotation Yrotation Xrotation
                JOINT Head
                {
                    OFFSET 0.000000 0.632542 -0.032565
                    CHANNELS 3 Zrotation Yrotation Xrotation
                    End Site
                    {
                        OFFSET -0.000001 0.439502 2.922845
                    }
                }
            }
            JOINT LeftCollar
            {
                OFFSET 0.167536 0.778237 -0.168280
                CHANNELS 3 Zrotation Yrotation Xrotation
                JOINT LeftShoulder
                {
                    OFFSET 0.831514 -0.002900 0.006458
                    CHANNELS 3 Zrotation Yrotation Xrotation
                    JOINT LeftElbow
                    {
                        OFFSET 2.272872 -0.026639 0.059314
                        CHANNELS 3 Zrotation Yrotation Xrotation
                        JOINT LeftWrist
                        {
                            OFFSET 2.081982 -0.024402 0.054333
                            CHANNELS 3 Zrotation Yrotation Xrotation
                            JOINT LeftHandThumb1
                            {
                                OFFSET 0.218903 -0.128645 0.283837
                                CHANNELS 3 Zrotation Yrotation Xrotation
                                JOINT LeftHandThumb2
                                {
                                    OFFSET 0.137157 -0.025101 0.077902
                                    CHANNELS 3 Zrotation Yrotation Xrotation
                                    JOINT LeftHandThumb3
                                    {
                                        OFFSET 0.142771 -0.106576 0.042395
                                        CHANNELS 3 Zrotation Yrotation Xrotation
                                        End Site
                                        {
                                            OFFSET 0.234445 -0.115474 0.059481
                                        }
                                    }
                                }
                            }
                            JOINT LeftHandFore1
                            {
                                OFFSET 0.767340 -0.016076 0.196678
                                CHANNELS 3 Zrotation Yrotation Xrotation
                                JOINT LeftHandFore2
                                {
                                    OFFSET 0.166755 -0.138006 -0.011928
                                    CHANNELS 3 Zrotation Yrotation Xrotation
                                    JOINT LeftHandFore3
                                    {
                                        OFFSET 0.060102 -0.114159 -0.010889
                                        CHANNELS 3 Zrotation Yrotation Xrotation
                                        End Site
                                        {
                                            OFFSET 0.066034 -0.181273 -0.012107
                                        }
                                    }
                                }
                            }
                            JOINT LeftHandMiddle1
                            {
                                OFFSET 0.709887 -0.008320 0.018526
                                CHANNELS 3 Zrotation Yrotation Xrotation
                                JOINT LeftHandMiddle2
                                {
                                    OFFSET 0.172954 -0.173634 -0.001476
                                    CHANNELS 3 Zrotation Yrotation Xrotation
                                    JOINT LeftHandMiddle3
                                    {
                                        OFFSET 0.033347 -0.142272 0.005473
                                        CHANNELS 3 Zrotation Yrotation Xrotation
                                        End Site
                                        {
                                            OFFSET -0.011187 -0.235563 0.003877
                                        }
                                    }
                                }
                            }
                            JOINT LeftHandRing1
                            {
                                OFFSET 0.743817 -0.005823 -0.153668
                                CHANNELS 3 Zrotation Yrotation Xrotation
                                JOINT LeftHandRing2
                                {
                                    OFFSET 0.220537 -0.275777 -0.006616
                                    CHANNELS 3 Zrotation Yrotation Xrotation
                                    JOINT LeftHandRing3
                                    {
                                        OFFSET 0.026553 -0.133000 0.014540
                                        CHANNELS 3 Zrotation Yrotation Xrotation
                                        End Site
                                        {
                                            OFFSET -0.016929 -0.118693 0.006706
                                        }
                                    }
                                }
                            }
                            JOINT LeftHandLittle1
                            {
                                OFFSET 0.689408 -0.053302 -0.308304
                                CHANNELS 3 Zrotation Yrotation Xrotation
                                JOINT LeftHandLittle2
                                {
                                    OFFSET 0.151307 -0.122160 -0.015404
                                    CHANNELS 3 Zrotation Yrotation Xrotation
                                    JOINT LeftHandLittle3
                                    {
                                        OFFSET 0.042990 -0.112386 0.004199
                                        CHANNELS 3 Zrotation Yrotation Xrotation
                                        End Site
                                        {
                                            OFFSET 0.073530 -0.175632 0.005959
                                        }
                                    }
                                }
                            }
                        }
                    }
                }
            }
            JOINT RightCollar
            {
                OFFSET -0.167536 0.778237 -0.168280
                CHANNELS 3 Zrotation Yrotation Xrotation
                JOINT RightShoulder
                {
                    OFFSET -0.831514 -0.002900 0.006457
                    CHANNELS 3 Zrotation Yrotation Xrotation
                    JOINT RightElbow
                    {
                        OFFSET -2.272872 -0.026639 0.059313
                        CHANNELS 3 Zrotation Yrotation Xrotation
                        JOINT RightWrist
                        {
                            OFFSET -2.081982 -0.024402 0.054331
                            CHANNELS 3 Zrotation Yrotation Xrotation
                            JOINT RightHandThumb1
                            {
                                OFFSET -0.218911 -0.128571 0.283837
                                CHANNELS 3 Zrotation Yrotation Xrotation
                                JOINT RightHandThumb2
                                {
                                    OFFSET -0.137157 -0.025101 0.077902
                                    CHANNELS 3 Zrotation Yrotation Xrotation
                                    JOINT RightHandThumb3
                                    {
                                        OFFSET -0.177649 -0.044489 0.000990
                                        CHANNELS 3 Zrotation Yrotation Xrotation
                                        End Site
                                        {
                                            OFFSET -0.249429 -0.088811 0.041642
                                        }
                                    }
                                }
                            }
                            JOINT RightHandFore1
                            {
                                OFFSET -0.767344 -0.015991 0.196679
                                CHANNELS 3 Zrotation Yrotation Xrotation
                                JOINT RightHandFore2
                                {
                                    OFFSET -0.166790 -0.137971 -0.011919
                                    CHANNELS 3 Zrotation Yrotation Xrotation
                                    JOINT RightHandFore3
                                    {
                                        OFFSET -0.060238 -0.113726 -0.014141
                                        CHANNELS 3 Zrotation Yrotation Xrotation
                                        End Site
                                        {
                                            OFFSET -0.066647 -0.179046 -0.029454
                                        }
                                    }
                                }
                            }
                            JOINT RightHandMiddle1
                            {
                                OFFSET -0.709887 -0.008302 0.018525
                                CHANNELS 3 Zrotation Yrotation Xrotation
                                JOINT RightHandMiddle2
                                {
                                    OFFSET -0.172935 -0.173647 -0.001461
                                    CHANNELS 3 Zrotation Yrotation Xrotation
                                    JOINT RightHandMiddle3
                                    {
                                        OFFSET -0.037055 -0.138759 0.027519
                                        CHANNELS 3 Zrotation Yrotation Xrotation
                                        End Site
                                        {
                                            OFFSET -0.000225 -0.224771 0.071474
                                        }
                                    }
                                }
                            }
                            JOINT RightHandRing1
                            {
                                OFFSET -0.743819 -0.005785 -0.153669
                                CHANNELS 3 Zrotation Yrotation Xrotation
                                JOINT RightHandRing2
                                {
                                    OFFSET -0.220556 -0.275762 -0.006621
                                    CHANNELS 3 Zrotation Yrotation Xrotation
                                    JOINT RightHandRing3
                                    {
                                        OFFSET -0.024592 -0.134098 -0.004216
                                        CHANNELS 3 Zrotation Yrotation Xrotation
                                        End Site
                                        {
                                            OFFSET 0.016552 -0.118465 0.010596
                                        }
                                    }
                                }
                            }
                            JOINT RightHandLittle1
                            {
                                OFFSET -0.689403 -0.053298 -0.308303
                                CHANNELS 3 Zrotation Yrotation Xrotation
                                JOINT RightHandLittle2
                                {
                                    OFFSET -0.151312 -0.122158 -0.015407
                                    CHANNELS 3 Zrotation Yrotation Xrotation
                                    JOINT RightHandLittle3
                                    {
                                        OFFSET -0.049392 -0.107020 0.024547
                                        CHANNELS 3 Zrotation Yrotation Xrotation
                                        End Site
                                        {
                                            OFFSET -0.082750 -0.167895 0.035387
                                        }
                                    }
                                }
                            }
                        }
                    }
                }
            }
        }
    }
    JOINT LeftHip
    {
        OFFSET 0.685143 0.673822 -0.044491
        CHANNELS 3 Zrotation Yrotation Xrotation
        JOINT LeftKnee
        {
            OFFSET 0.085364 -3.750208 0.017676
            CHANNELS 3 Zrotation Yrotation Xrotation
            JOINT LeftAnkle
            {
                OFFSET 0.094583 -4.155206 0.019585
                CHANNELS 3 Zrotation Yrotation Xrotation
                JOINT LeftToe
                {
                    OFFSET -0.000000 -0.395925 0.621478
                    CHANNELS 3 Zrotation Yrotation Xrotation
                    End Site
                    {
                        OFFSET -0.000000 -0.077878 0.321152
                    }
                }
            }
        }
    }
    JOINT RightHip
    {
        OFFSET -0.685143 0.673822 -0.044492
        CHANNELS 3 Zrotation Yrotation Xrotation
        JOINT RightKnee
        {
            OFFSET -0.085364 -3.750208 0.017677
            CHANNELS 3 Zrotation Yrotation Xrotation
            JOINT RightAnkle
            {
                OFFSET -0.094583 -4.155206 0.019585
                CHANNELS 3 Zrotation Yrotation Xrotation
                JOINT RightToe
                {
                    OFFSET -0.000000 -0.395925 0.621478
                    CHANNELS 3 Zrotation Yrotation Xrotation
                    End Site
                    {
                        OFFSET -0.000000 -0.077878 0.321152
                    }
                }
            }
        }
    }
}
MOTION
Frames: 7
Frame Time: 0.033333
-1.043563 8.785359 -1.741604 -179.624130 6.942889 -172.859299 -4.177032 -6.259649 9.699873 -2.707039 1.148130 -3.353285 -9.074833 4.212168 15.215364 -0.607748 11.641983 31.217875 -0.862202 -3.872797 0.010683 -59.573982 14.338872 -35.693123 178.533524 -32.651100 -179.577774 -1.990987 2.221164 -77.541458 -0.000005 0.000002 0.000002 22.539888 -11.548142 -11.198650 -2.023765 -8.990912 3.839045 12.265447 -9.708930 -13.140283 2.719416 1.009672 -1.083840 -7.642938 -1.039054 5.168480 22.933805 -11.223247 6.154865 14.347292 19.081224 -6.107812 -6.173228 -10.100640 0.290047 26.994457 -1.405235 6.164228 13.190605 -5.966130 2.448096 -6.219913 6.272236 -6.082935 9.271533 0.702236 22.214556 12.325381 -1.022711 -2.589811 -7.368371 -6.895621 -1.927180 4.899054 5.052780 -0.134347 25.935102 -3.308389 21.079735 -177.619095 66.994118 -178.431473 38.436691 4.310656 -2.875337 -0.000005 0.000000 -0.000006 -9.642690 24.076757 -18.995358 -7.119159 0.072601 -7.353235 -21.464622 10.764858 -12.612802 -11.835657 2.893102 -0.203285 -3.200751 -3.574585 -5.153746 -33.298550 10.686234 7.321433 -23.328072 13.421795 13.601310 -2.150275 -12.173789 1.936967 -37.624218 -0.520930 6.877401 -22.440121 -7.484904 0.039491 -5.325993 9.107811 5.406760 -20.097645 -5.325832 22.680546 -16.458853 -6.799796 10.885661 -0.961856 -2.859114 0.830089 6.542551 14.183229 -16.483109 0.125247 0.557642 25.314695 5.578669 7.531738 -19.415888 -0.000003 -0.000009 -0.000002 -9.619544 -0.560821 -18.021679 -0.058978 -0.387780 17.297688 -0.638288 6.020821 -14.869801 0.000001 0.000004 0.000004
-0.977538 8.778124 -1.707984 -179.266983 7.397285 -172.581070 -3.137998 -5.816512 9.752460 -2.167474 1.055683 -3.050723 -7.789907 4.391603 12.768276 -0.588164 11.276505 26.290958 -1.401153 -4.419835 0.017293 -41.169548 20.739237 -14.461179 178.488388 -37.207108 -179.498489 -25.351652 -40.879520 -50.055840 -0.000006 0.000001 -0.000001 24.714294 -14.867674 -11.491622 -0.127858 -10.322810 1.521231 21.648211 -10.535853 -12.850368 11.104933 0.041106 -0.987832 0.403048 -3.570663 5.001990 30.711540 -10.825739 7.026893 22.354414 19.360891 -4.268195 4.108035 -10.727448 -0.738196 34.965984 0.036527 6.696160 19.897339 -5.841489 4.344134 3.752323 9.093236 -4.412180 17.377542 4.170768 22.551815 18.257153 0.458162 0.590579 0.011420 -3.134195 -0.325377 1.950983 3.040525 -0.054635 36.085442 -8.213795 4.943719 -178.480804 37.879532 -179.485977 28.688147 40.091858 -48.637615 0.000002 -0.000006 -0.000007 -10.431777 24.324526 -20.301996 -7.801539 1.441824 -7.658217 -26.112730 11.030557 -12.589199 -15.363961 3.323871 -0.614234 -6.108867 -3.672396 -5.289742 -35.734215 10.553394 7.598815 -26.129438 13.065050 14.193178 -5.861652 -13.395638 3.641462 -40.130081 -0.979532 7.050164 -24.669672 -7.531553 -0.039096 -9.364039 9.645454 5.498161 -22.669903 -6.413644 22.810223 -18.618608 -6.962264 11.394262 -3.543168 -3.014770 1.902384 7.338747 14.112313 -16.936106 0.127079 0.561501 25.502439 5.091921 7.973282 -19.139967 -0.000001 0.000004 0.000002 -10.477135 -0.582259 -16.795952 -0.036395 -0.305979 13.568784 0.881009 5.388716 -12.614598 -0.000001 0.000003 0.000002
-0.926509 8.766134 -1.673981 -179.030487 7.698072 -172.290756 -2.281125 -5.521037 9.800313 -1.643070 0.981527 -2.752736 -6.283309 4.641227 10.571827 -0.588052 11.274429 22.040691 -1.141727 -4.813597 0.008037 -24.777597 15.761780 -2.250426 178.483612 -37.633438 -179.490601 -30.038851 -39.507336 -45.324383 -0.000001 -0.000003 0.000009 26.267204 -17.054222 -11.763704 1.476455 -11.480044 -0.386519 29.133352 -11.047936 -12.672799 17.361641 -0.638666 -1.031527 6.008680 -5.255168 4.799135 35.912750 -10.544900 7.617704 28.196125 19.451334 -2.869586 11.526013 -11.019548 -1.457104 40.313896 1.013581 7.062818 24.382151 -5.807529 5.622536 11.147176 10.838732 -3.000214 22.858843 6.493386 22.820120 22.273649 1.321663 2.771980 5.120436 -0.809264 0.853762 0.935620 2.970516 -0.031418 25.568972 -4.866008 0.864614 -178.516022 34.541016 -179.545929 28.532307 40.087952 -49.136288 -0.000002 0.000012 -0.000005 -10.930451 24.477457 -21.132008 -8.471482 2.691970 -8.019777 -30.343218 11.176960 -12.601874 -18.283808 3.666822 -0.956985 -8.156462 -3.713261 -5.392383 -37.272606 10.468200 7.774820 -28.348446 12.828961 14.669290 -8.784485 -14.238342 5.010876 -41.714413 -1.270252 7.160440 -26.078165 -7.555836 -0.088294 -12.582176 10.009683 5.541201 -24.300419 -7.100795 22.896589 -19.984245 -7.049827 11.721642 -5.218979 -3.108411 2.614604 7.925628 13.929176 -17.679306 0.132491 0.572701 26.048941 4.817092 8.405376 -19.005377 -0.000000 0.000005 -0.000003 -10.158368 -0.544848 -18.016964 -0.043028 -0.332263 14.759807 0.851185 4.815322 -12.857920 -0.000002 -0.000001 0.000003
-0.892322 8.749804 -1.639779 -178.944977 7.806873 -171.996246 -1.686632 -5.393929 9.827813 -1.172461 0.932095 -2.475719 -4.668783 4.666620 8.571005 -0.572335 10.980515 18.244377 -0.500947 -5.200772 -0.006137 -17.331871 7.580800 -2.318644 178.484512 -37.553406 -179.492081 -29.474619 -39.369427 -46.430153 -0.000003 -0.000012 0.000009 26.854229 -17.843893 -11.879244 2.663301 -12.434125 -1.692767 34.086880 -11.195744 -12.653138 20.828697 -0.999615 -1.121782 8.423701 -5.909485 4.683110 37.808758 -10.439657 7.834820 31.197918 19.497971 -2.133976 15.206262 -11.074874 -1.794743 42.266922 1.372133 7.198976 26.017000 -5.805098 6.089877 15.027069 11.534365 -2.174454 24.869722 7.340287 22.927584 23.747461 1.610091 3.576578 7.094260 0.012245 1.330412 0.232321 2.995257 -0.017887 16.252178 -7.168943 -4.190752 -178.510178 35.134941 -179.535629 28.316246 40.013996 -49.275185 0.000007 0.000008 -0.000013 -11.104294 24.530109 -21.422148 -9.119979 3.804166 -8.439172 -34.086655 11.193805 -12.655509 -20.511557 3.917983 -1.208149 -9.240457 -3.688550 -5.443666 -37.808758 10.438272 7.836295 -29.907408 12.708265 15.008482 -10.776914 -14.728642 5.952625 -42.266876 -1.371773 7.199073 -26.569092 -7.563350 -0.105381 -14.874296 10.181716 5.535717 -24.869757 -7.340298 22.927519 -20.460445 -7.077578 11.836785 -5.890016 -3.159146 2.894881 8.262080 13.645940 -18.702375 0.141223 0.590230 26.909494 4.751348 8.767452 -18.991047 -0.000001 0.000005 0.000003 -9.837746 -0.491133 -19.740805 -0.056999 -0.381371 17.003006 0.610789 4.542674 -13.642440 -0.000001 0.000000 0.000003
-0.876023 8.729579 -1.605440 -179.050049 7.433337 -171.705933 -1.388613 -5.591518 9.824668 -0.799186 0.936467 -2.232472 -3.003672 4.463335 6.677361 -0.539805 10.370370 14.640495 0.374739 -5.596539 -0.022517 -6.424581 0.855506 -5.263535 178.473358 -38.521652 -179.473846 -28.800217 -39.192017 -47.970303 -0.000010 -0.000013 -0.000006 26.096247 -16.733721 -10.856288 3.816982 -14.132066 -1.644722 37.879604 -10.725064 -12.652651 22.882996 -1.211272 -1.223453 9.056376 -5.993073 4.643403 37.489056 -10.450545 7.833946 32.707535 19.568228 -1.756746 16.895477 -11.027921 -1.936003 41.191357 1.044046 7.125813 26.017006 -5.805099 6.089878 17.043051 11.716655 -1.665462 22.647684 6.396679 23.047264 23.747456 1.610086 3.576584 7.240548 0.042789 1.384169 -0.011048 3.086767 -0.013968 13.158189 -11.821332 -6.856451 -178.472168 38.619850 -179.471954 28.117714 39.903152 -49.352921 -0.000013 -0.000003 -0.000014 -9.639724 23.917284 -20.338402 -9.834062 4.434646 -10.211738 -37.879349 10.723144 -12.654927 -22.568737 4.141477 -1.431712 -9.869530 -3.619764 -5.472573 -37.489059 10.449155 7.835443 -31.243574 12.641552 15.299294 -12.425154 -15.073324 6.734686 -41.191326 -1.043697 7.125926 -26.569092 -7.563354 -0.105383 -16.866880 10.256378 5.485450 -22.647743 -6.396680 23.047215 -20.460438 -7.077577 11.836787 -6.040088 -3.194841 2.941775 8.299470 13.271800 -20.057131 0.152941 0.612772 28.025642 4.955763 8.759492 -19.062788 0.000000 0.000003 0.000001 -9.862312 -0.435181 -21.345650 -0.072668 -0.429281 19.217756 0.551531 4.132885 -14.454059 -0.000002 -0.000004 0.000001
-0.873604 8.705853 -1.571662 -179.336426 7.469667 -171.427689 -1.521759 -6.229172 9.795675 -0.706708 1.030409 -2.034874 -1.324120 4.517050 4.898752 -0.557974 10.711407 11.409420 1.312843 -5.900980 -0.041194 4.609260 0.368011 -9.859866 178.445297 -40.764076 -179.429672 -28.301205 -38.923538 -45.592724 0.000005 -0.000010 0.000010 24.244617 -13.770833 -8.217134 5.334178 -17.219011 0.000114 42.117073 -9.565973 -12.527014 25.227547 -1.445411 -1.348839 9.778474 -6.084745 4.605345 36.646168 -10.479075 7.831859 34.431011 19.638115 -1.324162 18.821947 -10.967867 -2.094419 38.361237 0.180397 6.935664 26.017008 -5.805098 6.089876 19.345665 11.900416 -1.054169 16.815495 3.911143 23.398109 23.747458 1.610089 3.576575 7.406380 0.078509 1.448094 -0.231576 3.165463 -0.010471 10.905348 -14.446062 -8.548114 -178.416397 42.834789 -179.386124 28.003305 39.785358 -49.369530 -0.000009 0.000004 -0.000002 -5.858512 22.179953 -17.642414 -10.606736 4.403774 -14.156208 -42.116810 9.564139 -12.529102 -24.917110 4.389166 -1.696251 -10.586010 -3.538611 -5.514884 -36.646160 10.477702 7.833345 -32.769939 12.575760 15.628470 -14.314948 -15.438231 7.639873 -38.361198 -0.180046 6.935730 -26.569092 -7.563354 -0.105377 -19.144598 10.336974 5.401691 -16.815538 -3.911115 23.398067 -20.460445 -7.077580 11.836785 -6.212290 -3.234318 2.992914 8.086832 12.832057 -21.402361 0.166522 0.637630 29.270224 5.159224 9.199007 -19.189575 -0.000001 -0.000000 -0.000001 -10.145338 -0.371439 -23.069593 -0.090019 -0.476150 21.413599 0.548864 4.105820 -15.195397 0.000000 0.000000 0.000006
-0.874428 8.679134 -1.538499 -179.760849 7.563361 -171.170013 -1.854210 -7.225025 9.767935 -0.688318 1.186151 -1.834636 0.240776 4.761162 2.982909 -0.602555 11.544990 7.834436 2.435630 -5.573675 -0.066734 1.528244 12.845620 -20.603855 178.345078 -47.161510 -179.284943 -37.029545 -27.466194 -33.460339 -0.000000 -0.000012 0.000009 21.970634 -9.513405 -4.596925 7.065357 -21.231327 2.679033 46.523735 -7.944895 -12.319245 27.688951 -1.682282 -1.490847 10.536549 -6.178220 4.569564 35.454399 -10.518950 7.829208 36.240826 19.699615 -0.868035 20.842714 -10.897492 -2.257265 34.373253 -1.037142 6.672797 26.017008 -5.805099 6.089876 21.764984 12.066932 -0.390350 8.627440 0.405260 23.975239 23.747458 1.610089 3.576577 7.579749 0.116475 1.516854 -3.000754 2.424727 0.050652 -4.241579 -20.399563 -23.877113 -178.342346 47.308170 -179.281204 29.341375 33.147522 -39.592419 0.000009 0.000011 -0.000014 -0.710506 19.450766 -14.238129 -11.278822 3.961189 -19.557888 -46.523468 7.943142 -12.321078 -27.383183 4.640313 -1.984402 -11.337093 -3.451867 -5.565801 -35.454399 10.517592 7.830691 -34.372932 12.518021 15.972927 -16.308216 -15.788131 8.603550 -34.373215 1.037475 6.672789 -26.569092 -7.563353 -0.105382 -21.537958 10.417783 5.295606 -8.627481 -0.405214 23.975191 -20.460445 -7.077576 11.836782 -6.393646 -3.274874 3.045132 7.746150 12.337925 -22.753899 0.180992 0.662785 30.545313 5.354971 9.720931 -19.312443 -0.000000 -0.000003 -0.000003 -10.588577 -0.302054 -24.848137 -0.109906 -0.524035 23.691790 0.568992 4.128401 -15.965052 -0.000002 -0.000002 0.000003
